<?xml version="1.0" standalone="no"?>
<!DOCTYPE svg PUBLIC "-//W3C//DTD SVG 20010904//EN"
 "http://www.w3.org/TR/2001/REC-SVG-20010904/DTD/svg10.dtd">
<svg version="1.0" xmlns="http://www.w3.org/2000/svg"
 width="256.000000pt" height="256.000000pt" viewBox="0 0 256.000000 256.000000"
 preserveAspectRatio="xMidYMid meet">

<g transform="translate(0.000000,256.000000) scale(0.100000,-0.100000)"
fill="#fff" stroke="none">
<path d="M50 2523 c-48 -18 -65 -67 -32 -96 13 -12 47 -16 147 -19 146 -3 183
-17 218 -75 10 -18 103 -286 207 -597 l188 -565 -25 -68 c-20 -56 -24 -79 -19
-130 9 -105 70 -192 165 -236 45 -22 55 -22 641 -25 327 -2 605 0 617 3 51 12
70 67 35 98 -17 15 -73 17 -603 17 -390 0 -597 4 -624 11 -95 26 -138 120 -99
218 19 47 -62 34 684 111 322 33 608 67 635 75 95 27 182 104 215 190 23 62
160 659 155 676 -4 11 -15 24 -26 29 -12 7 -369 16 -985 25 -532 8 -970 18
-974 22 -4 4 -20 45 -35 91 -64 195 -152 253 -379 251 -50 0 -98 -3 -106 -6z
m1518 -477 c463 -7 845 -16 849 -19 7 -8 -112 -503 -134 -559 -19 -47 -71 -94
-120 -108 -21 -6 -301 -37 -623 -70 -322 -33 -601 -62 -621 -65 l-37 -5 -136
414 c-75 228 -136 417 -136 420 0 7 -68 8 958 -8z"/>
<path d="M735 553 c-76 -28 -121 -67 -156 -139 -28 -57 -31 -71 -27 -127 7
-79 34 -133 94 -186 102 -90 260 -84 357 13 53 52 70 92 75 172 5 81 -13 135
-66 195 -65 74 -184 105 -277 72z m145 -121 c110 -55 107 -213 -6 -263 -50
-23 -88 -19 -140 12 -64 39 -83 145 -37 208 24 33 79 61 118 61 17 0 46 -8 65
-18z"/>
<path d="M1883 561 c-202 -52 -270 -303 -122 -450 50 -49 108 -72 184 -72 273
0 367 363 128 494 -54 29 -137 41 -190 28z m127 -129 c103 -51 108 -206 8
-258 -69 -36 -161 -13 -198 49 -58 94 15 227 125 227 17 0 46 -8 65 -18z"/>
</g>
</svg>
